<svg preserveAspectRatio="none" width="100%" height="100%" overflow="visible" style="display: block;" viewBox="0 0 50 50" fill="none" xmlns="http://www.w3.org/2000/svg">
<path id="Vector" d="M8.55208 8.55437C8.55208 8.55437 19.0792 3.29424 24.3417 0.661056C25.2995 0.188919 26.36 -0.0366385 27.4271 0.00484222C29.0229 0.102753 30.9208 1.64642 30.9208 1.64642L50 20.7266V41.1192H41.1187V50H20.3937L1.64375 31.251C0.63125 30.2094 0 28.7408 0 27.3033C0 26.6388 0.375 25.5993 0.658333 25.0014L8.55208 8.55437ZM9.96667 9.96887V34.5238C9.97083 35.655 10.0104 36.657 11.0042 37.6653L21.2583 47.9168H39.0354V39.036L9.96667 9.96887ZM35.0813 8.55645C33.2083 6.68989 31.3125 4.84832 29.3729 3.05051C28.7437 2.49429 28.1917 2.07556 27.1437 2.08806C26.3729 2.11723 25.3312 2.49429 25.3312 2.49429L13.2104 8.55437L35.0813 8.55645Z" fill="var(--fill-0, #3796D0)"/>
</svg>
