<svg preserveAspectRatio="none" width="100%" height="100%" overflow="visible" style="display: block;" viewBox="0 0 72 42" fill="none" xmlns="http://www.w3.org/2000/svg">
<path id="Vector" d="M72 40.8708C70.9521 41.2693 69.7954 41.2684 68.7481 40.8683C67.7008 40.4683 66.8353 39.6968 66.315 38.6993L55.965 24.31L54.465 22.2984L42.456 38.7174C41.967 39.673 41.1485 40.4169 40.1535 40.8098C39.1586 41.2028 38.0553 41.2181 37.05 40.8527L52.524 19.9821L38.13 1.12919C39.165 0.754227 40.2969 0.749256 41.3351 1.11511C42.3733 1.48097 43.2544 2.19531 43.83 3.13784L54.558 17.705L65.346 3.19816C65.8388 2.25954 66.6575 1.53571 67.6465 1.16426C68.6355 0.792814 69.7257 0.799653 70.71 1.18348L65.124 8.63597L57.558 18.5374C57.3479 18.7259 57.1798 18.9568 57.0646 19.2151C56.9495 19.4735 56.89 19.7533 56.89 20.0364C56.89 20.3195 56.9495 20.5993 57.0646 20.8576C57.1798 21.116 57.3479 21.3469 57.558 21.5353L71.97 40.8738L72 40.8708ZM0.00603599 19.7227L1.26604 13.4646C4.72803 1.08998 18.84 -4.0583 28.548 3.6023C34.233 8.0931 35.652 14.4508 35.373 21.6168H3.34803C2.82903 34.4136 12.015 42.1405 23.76 38.1926C25.664 37.5036 27.3682 36.3506 28.7201 34.8368C30.0719 33.323 31.0292 31.4957 31.506 29.5186C32.127 27.51 33.15 27.1662 35.028 27.7452C34.7151 30.1954 33.8535 32.5423 32.5082 34.6094C31.1629 36.6765 29.3689 38.41 27.261 39.6795C23.7793 41.5941 19.7845 42.353 15.8479 41.8476C11.9113 41.3422 8.23443 39.5984 5.34303 36.8656C2.48412 33.6306 0.756264 29.5443 0.423036 25.2299C0.423036 24.5212 0.183036 23.8576 0.021036 23.2213C0.00643208 22.0562 -0.000568071 20.891 3.59888e-05 19.7257L0.00603599 19.7227ZM3.38703 18.8602H32.349C32.169 9.58299 26.346 3.00212 18.579 2.9418C9.93303 2.82116 3.74703 9.25727 3.36603 18.8179L3.38703 18.8602Z" fill="var(--fill-0, #3796D0)"/>
</svg>
