<svg preserveAspectRatio="none" width="100%" height="100%" overflow="visible" style="display: block;" viewBox="0 0 46 46" fill="none" xmlns="http://www.w3.org/2000/svg">
<g id="jwt-icon 1" clip-path="url(#clip0_0_4)">
<path id="Vector" d="M26.4699 12.3629L26.4239 5.3551e-09H19.5301L19.5761 12.3629L23.0229 17.0968L26.4699 12.3629ZM19.5761 33.5499V45.9588H26.4699V33.5499L23.0229 28.8162L19.5761 33.5499Z" fill="var(--fill-0, #3796D0)"/>
<path id="Vector_2" d="M26.4699 33.5499L33.7314 43.569L39.2924 39.5246L32.0309 29.5057L26.4699 27.7131V33.5499ZM19.5761 12.3629L12.2686 2.34385L6.70759 6.38827L13.9691 16.4073L19.5761 18.1997V12.3629Z" fill="var(--fill-0, #3796D0)"/>
<path id="Vector_3" d="M13.9691 16.4073L2.20353 12.5927L0.0894942 19.1188L11.8549 22.9794L17.4159 21.141L13.9691 16.4073ZM28.5841 24.7718L32.0309 29.5057L43.7965 33.3201L45.9105 26.794L34.1451 22.9794L28.5841 24.7718Z" fill="var(--fill-0, #3796D0)"/>
<path id="Vector_4" d="M34.1451 22.9794L45.9105 19.1188L43.7965 12.5927L32.0309 16.4073L28.5841 21.141L34.1451 22.9794ZM11.8549 22.9794L0.0894942 26.794L2.20353 33.3201L13.9691 29.5057L17.4159 24.7718L11.8549 22.9794Z" fill="var(--fill-0, #3796D0)"/>
<path id="Vector_5" d="M13.9691 29.5057L6.70759 39.5246L12.2686 43.569L19.5761 33.5499V27.7131L13.9691 29.5057ZM32.0309 16.4073L39.2924 6.38827L33.7314 2.34385L26.4699 12.3629V18.1997L32.0309 16.4073Z" fill="var(--fill-0, #3796D0)"/>
</g>
<defs>
<clipPath id="clip0_0_4">
<rect width="46" height="46" fill="white"/>
</clipPath>
</defs>
</svg>
