<svg preserveAspectRatio="none" width="100%" height="100%" overflow="visible" style="display: block;" viewBox="0 0 67 46" fill="none" xmlns="http://www.w3.org/2000/svg">
<path id="Vector" d="M45.7973 4.65713C45.4763 4.65713 45.2585 4.69664 45.0324 4.75027V4.78697H45.0715C45.2222 5.08052 45.479 5.29504 45.6689 5.55754C45.8196 5.85956 45.948 6.16158 46.0988 6.46078L46.1379 6.41844C46.4003 6.23215 46.5287 5.93295 46.5287 5.47851C46.417 5.34584 46.4003 5.21318 46.3054 5.08334C46.1937 4.89423 45.9536 4.80108 45.8029 4.65148L45.7973 4.65713ZM16.1079 41.8987H13.52C13.4473 37.7404 13.1958 33.5872 12.7663 29.451H12.744L8.80771 41.8987H6.83958L2.93125 29.451H2.90333C2.59763 33.5937 2.41609 37.7449 2.35896 41.8987H0C0.153542 36.3495 0.536 31.1446 1.14458 26.2897H4.355L8.08188 37.7608H8.10421L11.8646 26.2897H14.9215C15.597 31.9772 15.9935 37.185 16.1163 41.8987H16.1079ZM27.322 30.3825C26.2668 36.1547 24.8765 40.3548 23.1569 42.9713C21.8113 44.9923 20.3373 46 18.7377 46C18.3105 46 17.7885 45.8702 17.1576 45.6105V44.2161C17.4647 44.2641 17.8276 44.2895 18.2352 44.2895C18.9833 44.2895 19.5835 44.0778 20.0414 43.6629C20.5913 43.1548 20.8649 42.5846 20.8649 41.9552C20.8649 41.5177 20.65 40.6286 20.2228 39.2906L17.3921 30.3825H19.9325L21.962 37.0438C22.4199 38.5568 22.6125 39.6124 22.5343 40.2136C23.651 37.2104 24.4271 33.9277 24.8654 30.3825H27.322ZM61.7293 41.8987H54.3873V26.2897H56.8579V39.9794H61.7293V41.8987ZM52.461 42.2798L49.6247 40.8685C49.8759 40.654 50.1188 40.4225 50.3365 40.1628C51.5453 38.7346 52.1455 36.612 52.1455 33.8035C52.1455 28.6381 50.1411 26.0526 46.1295 26.0526C44.1642 26.0526 42.6288 26.7074 41.5233 28.0199C40.3228 29.4538 39.7198 31.5651 39.7198 34.3567C39.7198 37.1003 40.2503 39.1156 41.3223 40.3971C42.2993 41.5544 43.7705 42.133 45.7415 42.133C46.4785 42.133 47.154 42.0399 47.7654 41.8564L51.4644 44.0355L52.4694 42.2798H52.461ZM43.2708 38.7741C42.6427 37.758 42.33 36.1208 42.33 33.874C42.33 29.9421 43.5137 27.9748 45.8755 27.9748C47.1122 27.9748 48.025 28.4461 48.6029 29.3861C49.2283 30.4079 49.5409 32.028 49.5409 34.2494C49.5409 38.2124 48.3573 40.1995 45.9955 40.1995C44.7532 40.1995 43.8459 39.7281 43.2653 38.7882L43.2708 38.7741ZM38.6423 37.5745C38.6423 38.9011 38.1621 39.9906 37.2018 40.8374C36.2414 41.6842 34.96 42.1076 33.3381 42.1076C31.8222 42.1076 30.3678 41.6221 28.9468 40.654L29.6084 39.3104C30.8312 39.9314 31.9339 40.2362 32.9305 40.2362C33.8573 40.2362 34.586 40.0302 35.1164 39.6152C35.3815 39.4132 35.5955 39.1506 35.7411 38.8489C35.8867 38.5472 35.9596 38.215 35.9539 37.8793C35.9539 36.9479 35.3118 36.1575 34.1449 35.4942C33.0617 34.893 30.8982 33.6398 30.8982 33.6398C29.7201 32.7732 29.1338 31.8446 29.1338 30.3175C29.1338 29.0474 29.5721 28.0312 30.4459 27.255C31.3253 26.4703 32.4559 26.0836 33.8518 26.0836C35.2811 26.0836 36.5876 26.4675 37.7601 27.2409L37.1655 28.5844C36.2286 28.1683 35.2183 27.9475 34.1951 27.9352C33.4051 27.9352 32.7937 28.1272 32.3694 28.5167C32.154 28.6971 31.9804 28.923 31.8608 29.1785C31.7412 29.4341 31.6785 29.713 31.677 29.9958C31.677 30.9216 32.3303 31.7176 33.5363 32.395C34.6334 33.0018 36.85 34.2861 36.85 34.2861C38.0588 35.147 38.659 36.0644 38.659 37.583L38.6423 37.5745ZM64.8337 21.0565C63.3401 21.017 62.1816 21.1694 61.2129 21.5872C60.9337 21.7001 60.487 21.7001 60.448 22.0586C60.6015 22.2082 60.6238 22.4537 60.755 22.6626C60.9784 23.0408 61.3636 23.5461 61.721 23.8114C62.1118 24.1219 62.5026 24.4211 62.913 24.6864C63.6388 25.138 64.4624 25.4062 65.1743 25.8606C65.579 26.1259 65.9922 26.4618 66.4026 26.7441C66.6064 26.8852 66.7376 27.1393 67 27.2296V27.1731C66.8716 27.0038 66.8325 26.7582 66.7069 26.5691C66.5198 26.38 66.3328 26.2106 66.1485 26.0243C65.6004 25.294 64.9463 24.6517 64.2083 24.1191C63.6109 23.707 62.3044 23.1312 62.0588 22.4396L62.0225 22.4001C62.43 22.3634 62.9158 22.2138 63.3066 22.1009C63.9403 21.9315 64.521 21.9682 65.177 21.8017C65.473 21.7255 65.7717 21.6323 66.0704 21.5364V21.367C65.7354 21.0283 65.4841 20.5682 65.138 20.2521C64.1717 19.3981 63.1413 18.6215 62.056 17.9291C61.4697 17.5508 60.7271 17.3081 60.1102 16.9863C59.8868 16.8734 59.5127 16.817 59.3843 16.6278C59.0493 16.2157 58.8539 15.6682 58.6166 15.177C58.0685 14.1018 57.5591 13.0069 57.0896 11.8943C56.7546 11.1548 56.5508 10.4181 56.1404 9.74066C54.2142 6.53134 52.1288 4.58656 48.9212 2.68412C48.2316 2.28895 47.4053 2.11959 46.5315 1.91072C46.0653 1.88814 45.5991 1.85427 45.1357 1.83451C44.8286 1.70185 44.5327 1.34337 44.2703 1.17119C43.2094 0.493765 40.4624 -0.973996 39.6808 0.967965C39.1783 2.19298 40.4261 3.40106 40.8588 4.02204C41.1799 4.4539 41.5847 4.94786 41.808 5.43335C41.9392 5.76077 41.9755 6.09666 42.1067 6.4382C42.4026 7.26805 42.6846 8.19386 43.0754 8.97008C43.2792 9.36525 43.5025 9.78018 43.765 10.1358C43.9157 10.3419 44.1725 10.4378 44.2312 10.7766C43.9688 11.1604 43.952 11.7193 43.8013 12.1879C43.1313 14.3246 43.3937 16.9666 44.3428 18.5388C44.6415 19.0073 45.3534 20.046 46.3054 19.648C47.1429 19.3093 46.9586 18.2367 47.1987 17.2912C47.2545 17.0654 47.2183 16.9158 47.3327 16.7633V16.8057C47.5951 17.3363 47.8575 17.8416 48.0976 18.3722C48.6727 19.298 49.6777 20.2577 50.518 20.8985C50.9647 21.2372 51.3192 21.8243 51.8775 22.0332V21.9767H51.8357C51.7156 21.813 51.5565 21.734 51.4058 21.6013C51.0518 21.2509 50.7251 20.8735 50.4287 20.4722C49.6421 19.3856 48.9447 18.2358 48.3433 17.0343C48.0362 16.4416 47.7794 15.8036 47.5337 15.2194C47.422 14.9935 47.422 14.6548 47.235 14.5419C46.9558 14.954 46.5455 15.3125 46.3417 15.8206C45.9871 16.6335 45.9508 17.6327 45.8168 18.6714C45.7415 18.6912 45.7778 18.6714 45.7415 18.7109C45.144 18.5642 44.9403 17.9375 44.7169 17.4125C44.1586 16.0718 44.0665 13.9181 44.5494 12.3742C44.6806 11.979 45.239 10.7314 45.0156 10.3532C44.8984 9.9947 44.5299 9.78864 44.3261 9.49791C44.0639 9.11952 43.8395 8.7158 43.6561 8.29266C43.2094 7.237 42.9861 6.06843 42.5003 5.01278C42.277 4.52446 41.8862 4.01357 41.5679 3.56477C41.2134 3.0567 40.8225 2.69823 40.5406 2.09701C40.4485 1.89096 40.3173 1.54942 40.4652 1.32362C40.5043 1.17119 40.5825 1.11192 40.7276 1.06958C40.9733 0.866351 41.6628 1.13168 41.9057 1.24458C42.5953 1.52684 43.1759 1.79217 43.7538 2.18734C44.0162 2.37363 44.2982 2.7321 44.6332 2.82525H45.024C45.6214 2.95791 46.2942 2.86476 46.8525 3.0313C47.8436 3.35308 48.7369 3.82163 49.5381 4.3297C52.0069 5.92424 54.0149 8.15026 55.3588 10.7822C55.5821 11.2169 55.6798 11.6149 55.8836 12.0665C56.2744 12.998 56.7574 13.9379 57.1538 14.8383C57.5446 15.7274 57.9215 16.6335 58.4826 17.3702C58.7618 17.7654 59.884 17.9714 60.3865 18.1775C60.7578 18.3468 61.3357 18.5021 61.6707 18.7081C62.3128 19.1033 62.9381 19.5549 63.5411 19.9896C63.8482 20.2041 64.7778 20.6755 64.8337 21.0565Z" fill="var(--fill-0, #3796D0)"/>
</svg>
