<svg preserveAspectRatio="none" width="100%" height="100%" overflow="visible" style="display: block;" viewBox="0 0 50 54" fill="none" xmlns="http://www.w3.org/2000/svg">
<path id="Vector" d="M25 0C24.25 0 23.4722 0.186207 22.8333 0.53202L2.16667 11.9704C0.833333 12.7153 0 14.0985 0 15.5882V38.4118C0 39.9015 0.833333 41.2847 2.16667 42.0296L7.58333 45.0089C10.2222 46.2325 11.1111 46.2591 12.3333 46.2591C16.2222 46.2591 18.4722 43.998 18.4722 40.0611V17.53C18.4722 17.2108 18.1944 16.9448 17.8611 16.9448H15.2778C14.9167 16.9448 14.6389 17.2108 14.6389 17.53V40.0611C14.6389 41.8167 12.75 43.5458 9.72222 42.0828L4.02778 38.9704C3.93425 38.9072 3.85777 38.8235 3.80465 38.7264C3.75152 38.6293 3.72327 38.5215 3.72222 38.4118V15.5882C3.72222 15.3488 3.83333 15.136 4.02778 15.0296L24.6944 3.61773C24.8611 3.51133 25.1389 3.51133 25.3056 3.61773L45.9722 15.0296C46.1667 15.136 46.2778 15.3488 46.2778 15.5882V38.4118C46.2778 38.6246 46.1667 38.8374 45.9722 38.9704L25.3056 50.3823C25.1389 50.4887 24.8611 50.4887 24.6667 50.3823L19.4444 47.3498C19.2222 47.2699 19 47.2433 18.8611 47.3232C17.3889 48.1212 17.1111 48.2808 15.75 48.6798C15.4167 48.7862 14.8889 48.9724 15.9444 49.531L22.8333 53.4414C23.5 53.8138 24.2222 54 25 54C25.7778 54 26.5 53.8138 27.1667 53.4414L47.8333 42.0296C49.1667 41.2847 50 39.9015 50 38.4118V15.5882C50 14.0985 49.1667 12.7153 47.8333 11.9704L27.1667 0.53202C26.5278 0.186207 25.7778 0 25 0ZM30.5556 16.3596C24.6667 16.3596 21.1389 18.7271 21.1389 22.7172C21.1389 27 24.6389 28.2502 30.3056 28.7823C37.0556 29.4207 37.5833 30.3783 37.5833 31.6552C37.5833 33.8631 35.7222 34.7941 31.3889 34.7941C25.8889 34.7941 24.7222 33.4906 24.3056 30.8837C24.2763 30.749 24.1997 30.628 24.0884 30.5408C23.9772 30.4537 23.8381 30.4057 23.6944 30.4049H21.0278C20.6944 30.4049 20.4444 30.6443 20.4444 30.9901C20.4444 34.2887 22.3333 38.2788 31.3889 38.2788C37.9167 38.2788 41.6667 35.8049 41.6667 31.4956C41.6667 27.2128 38.6667 26.0956 32.3056 25.2709C25.8889 24.4729 25.25 24.0473 25.25 22.6108C25.25 21.4138 25.8056 19.8177 30.5556 19.8177C34.7222 19.8177 36.3611 20.6956 37 23.4355C37.0556 23.7015 37.3056 23.8877 37.5833 23.8877H40.2778C40.4167 23.8877 40.5833 23.8345 40.6944 23.7015C40.8056 23.5951 40.8889 23.4355 40.8333 23.2759C40.4444 18.5409 37.1667 16.3596 30.5556 16.3596Z" fill="var(--fill-0, #3796D0)"/>
</svg>
